PathFileType	4	(X/Y/Z)	c:/Users/goper/Files/vsCode/490R/osim_files/C10/C10_Slow_04.trc
DataRate	CameraRate	NumFrames	NumMarkers	Units                	OrigDataRate	OrigDataStartFrame	OrigNumFrames
250.00	250.00	9	36	mm	250.0	1703	3404
                Frame#	Time	LPSIS			LASIS			LTH1			LTH2			LTH3			LTH4			LLFE			LMFE			LSH1			LSH2			LSH3			LSH4			LLMAL			LMMAL			LCAL			LMTP5			LTOE			LMTP1			RPSIS			RASIS			RTH1			RTH2			RTH3			RTH4			RLFE			RMFE			RSH1			RSH2			RSH3			RSH4			RLMAL			RMMAL			RCAL			RMTP1			RTOE			RMTP5		
		X1	Y1	Z1	X2	Y2	Z2	X3	Y3	Z3	X4	Y4	Z4	X5	Y5	Z5	X6	Y6	Z6	X7	Y7	Z7	X8	Y8	Z8	X9	Y9	Z9	X10	Y10	Z10	X11	Y11	Z11	X12	Y12	Z12	X13	Y13	Z13	X14	Y14	Z14	X15	Y15	Z15	X16	Y16	Z16	X17	Y17	Z17	X18	Y18	Z18	X19	Y19	Z19	X20	Y20	Z20	X21	Y21	Z21	X22	Y22	Z22	X23	Y23	Z23	X24	Y24	Z24	X25	Y25	Z25	X26	Y26	Z26	X27	Y27	Z27	X28	Y28	Z28	X29	Y29	Z29	X30	Y30	Z30	X31	Y31	Z31	X32	Y32	Z32	X33	Y33	Z33	X34	Y34	Z34	X35	Y35	Z35	X36	Y36	Z36

1703	6.80800	1425.53210	1019.21069	253.56444	1280.88794	994.95142	396.71313	1291.77368	763.52197	432.89111	1286.91052	717.25684	428.90506	1239.98047	776.19055	417.70538	1234.93433	730.67566	413.62036	1227.99390	480.92325	380.99475	1218.79675	464.58401	264.27307	1317.58069	451.94058	381.83969	1351.75757	420.20755	385.96182	0.00000	0.00000	0.00000	0.00000	0.00000	0.00000	1618.62341	249.34659	299.75909	1549.81152	234.35573	345.51083	0.00000	0.00000	0.00000	0.00000	0.00000	0.00000	2665.99561	1077.48181	391.66846	0.00000	0.00000	0.00000	1415.43787	1027.72205	172.65935	1247.76709	1011.06683	63.56014	1305.19006	743.64435	16.30357	1291.88147	702.14685	20.34446	0.00000	0.00000	0.00000	1242.58130	714.84711	19.27225	1243.71497	486.81891	95.55133	1244.46350	487.78409	206.55681	1311.75354	390.69012	84.32413	1303.58960	345.48151	86.92307	1249.66150	392.45868	94.30899	1252.84790	352.87766	90.53838	0.00000	0.00000	0.00000	1257.32703	85.62798	233.70663	1281.23572	87.85560	148.93024	0.00000	0.00000	0.00000	1157.25769	35.23285	132.95691	1114.54431	55.53107	196.52580
1704	6.81200	1418.14795	1018.42499	255.98318	1276.75452	995.52655	396.45026	0.00000	0.00000	0.00000	1278.06934	719.74097	430.30859	1234.94604	777.31671	417.69720	1233.40771	731.29016	415.05319	1219.88367	482.38879	381.15839	1210.45117	466.14740	264.51889	1308.23035	452.14566	382.15558	1343.05676	420.36407	385.91391	0.00000	0.00000	0.00000	0.00000	0.00000	0.00000	0.00000	0.00000	0.00000	1538.79431	232.42868	345.51285	0.00000	0.00000	0.00000	1520.81030	65.41470	308.34729	0.00000	0.00000	0.00000	0.00000	0.00000	0.00000	1411.65857	1028.35046	172.37956	1244.03491	1011.30402	63.32404	1303.09998	743.90289	16.14400	1289.92383	702.23218	20.26430	0.00000	0.00000	0.00000	1238.46606	713.55426	21.09195	1243.20056	486.75354	95.16947	1243.28552	487.69003	206.16162	1311.45386	390.82947	84.21882	1303.39990	345.60461	86.83858	1247.76038	390.28381	95.76005	1252.65930	352.84308	90.36179	0.00000	0.00000	0.00000	1257.16821	85.70155	233.71808	1281.23462	87.86369	148.93333	0.00000	0.00000	0.00000	1157.29553	35.24123	132.90312	1114.50281	55.56290	196.47487
1705	6.81600	1415.72766	1019.48944	253.95665	1273.35742	995.98273	396.21414	0.00000	0.00000	0.00000	1274.13416	720.45978	430.58664	1230.14514	778.48602	417.69690	1222.81152	732.52411	414.81644	1211.78113	483.78000	381.33243	1193.49170	469.68549	263.29364	1300.04980	452.71487	382.12573	1334.49072	420.49170	385.79391	0.00000	0.00000	0.00000	0.00000	0.00000	0.00000	0.00000	0.00000	0.00000	1527.63708	230.32979	345.55429	1606.74426	242.74295	295.53601	1502.69434	109.78956	366.31046	1443.70911	83.02934	311.08334	0.00000	0.00000	0.00000	1407.91907	1028.93054	172.10597	1240.33826	1011.57751	62.95646	1300.88708	744.14722	16.08144	1287.94360	702.34485	20.20502	1243.20496	757.91949	15.30050	1235.54065	712.94366	21.76734	1242.69287	486.72556	94.79156	1242.03772	487.61911	205.78470	1311.07275	390.99200	84.11137	1303.17944	345.73410	86.73051	1248.47363	391.67621	94.29582	1252.63208	350.58420	91.58138	0.00000	0.00000	0.00000	0.00000	0.00000	0.00000	1283.82532	87.78318	148.92957	0.00000	0.00000	0.00000	1157.24438	35.28574	132.86914	1114.52063	55.58654	196.44278
1706	6.82000	1412.02905	1020.10925	253.73782	1269.30981	996.53168	395.91562	0.00000	0.00000	0.00000	0.00000	0.00000	0.00000	1225.36182	779.60925	417.70059	1219.22729	734.24860	414.01614	0.00000	0.00000	0.00000	1185.24707	471.35730	263.45856	1291.99829	453.27689	382.00912	1328.51038	421.85931	384.86172	1252.36230	407.14880	379.28336	0.00000	0.00000	0.00000	0.00000	0.00000	0.00000	1516.48828	228.06828	345.68555	1588.74731	236.25928	296.27066	0.00000	0.00000	0.00000	1429.51184	82.22191	312.37720	0.00000	0.00000	0.00000	1404.19983	1029.44788	171.83344	1236.73853	1012.20178	62.53531	1298.73523	744.43256	15.96039	1285.88391	702.43658	20.19329	1239.83838	757.27820	16.09982	1233.45483	712.92462	21.54792	1242.09656	486.68744	94.42278	1240.83276	487.55133	205.37526	1310.70166	391.15909	84.01309	1302.87000	345.90933	86.63899	1248.01465	391.65491	94.14145	1252.27856	350.63675	91.38827	0.00000	0.00000	0.00000	1257.20557	85.71842	233.65422	1283.84229	87.81165	148.91963	0.00000	0.00000	0.00000	1157.20435	35.31110	132.89420	1114.51941	55.58277	196.41327
1707	6.82400	1410.55017	1021.67688	252.67216	1261.83972	997.58582	394.92792	0.00000	0.00000	0.00000	0.00000	0.00000	0.00000	1220.71777	780.71375	417.71582	1219.84363	734.78821	414.62149	0.00000	0.00000	0.00000	1176.17114	473.10431	263.48514	1283.91016	453.70044	381.93079	1319.84985	421.71228	384.77707	1243.98450	407.14447	381.00320	0.00000	0.00000	0.00000	0.00000	0.00000	0.00000	1505.11768	225.56981	345.80734	1577.89893	232.05046	296.14377	0.00000	0.00000	0.00000	1415.18335	81.41960	313.56296	0.00000	0.00000	0.00000	1400.48926	1029.83472	171.61935	1233.11792	1012.37030	62.14536	1296.48901	744.68927	15.96713	1283.79858	702.54492	20.18476	1237.46082	757.23340	15.94639	1231.35791	712.84125	21.38786	1241.51404	486.62433	94.11856	1233.65540	488.59439	204.87621	1310.27710	391.33780	83.90914	1302.49133	346.06726	86.51023	1247.51355	391.59830	94.03232	1251.71826	352.92780	89.83054	0.00000	0.00000	0.00000	1257.29651	85.68813	233.65556	1283.87305	87.84740	148.91663	0.00000	0.00000	0.00000	1157.19971	35.31430	132.90410	1114.33728	55.75168	196.15535
1708	6.82800	1404.58911	1021.10968	253.40334	1257.98596	998.08289	394.68158	0.00000	0.00000	0.00000	0.00000	0.00000	0.00000	1216.03577	781.73810	417.76736	1214.75073	735.95453	414.82837	0.00000	0.00000	0.00000	1167.40308	474.42856	263.96155	1275.81482	454.05823	381.82660	1311.23120	421.49994	384.67798	1238.17969	407.79581	379.98700	0.00000	0.00000	0.00000	0.00000	0.00000	0.00000	1493.66943	222.69234	346.14725	1566.81128	227.56505	296.05954	0.00000	0.00000	0.00000	1400.64600	80.54864	314.74915	0.00000	0.00000	0.00000	1396.93701	1030.14355	171.42725	1229.55188	1012.52478	61.90247	1294.21362	745.00012	15.93733	1281.67798	702.64374	20.12763	1235.11316	757.19995	15.67157	1229.25024	712.79431	21.16624	1240.87915	486.53781	93.80537	1232.70007	488.49289	204.63005	1309.73035	391.49677	83.77719	1302.04614	346.19644	86.42757	1246.94446	391.56668	93.93611	1251.25305	352.97064	89.67788	0.00000	0.00000	0.00000	1257.24609	85.61922	233.63042	1283.88782	87.87737	148.91997	0.00000	0.00000	0.00000	1157.21716	35.32593	132.87006	1114.29712	55.73793	196.13135
1709	6.83200	1400.91663	1021.51074	253.27165	1254.25586	998.59747	394.26205	0.00000	0.00000	0.00000	0.00000	0.00000	0.00000	1211.44482	782.76324	417.82428	1214.61621	736.16650	415.92035	0.00000	0.00000	0.00000	1159.45166	476.09796	264.02917	1267.71716	454.29922	381.71597	1302.69250	421.33289	384.56546	1225.06311	409.96332	380.99164	0.00000	0.00000	0.00000	0.00000	0.00000	0.00000	1482.33557	220.22289	346.14798	1557.15039	223.99384	296.61722	0.00000	0.00000	0.00000	1385.94995	79.70703	315.97800	0.00000	0.00000	0.00000	1392.98352	1030.37122	171.25203	1225.81812	1012.25439	61.70388	1291.87305	745.25195	15.99035	1279.57227	702.80359	20.06137	1232.71582	757.14532	15.48927	1227.04102	712.66162	20.97268	1240.17993	486.45422	93.52220	1231.91003	488.36072	204.46121	1309.12769	391.61728	83.65218	1301.59802	346.31323	86.28139	1246.31836	391.50183	93.85764	1250.75989	352.98068	89.58694	0.00000	0.00000	0.00000	1257.30261	85.59348	233.64143	1283.86743	87.88201	148.95660	0.00000	0.00000	0.00000	1157.18579	35.32708	132.87354	1114.40186	55.45346	196.37990
1710	6.83600	1397.20386	1021.81628	253.13805	1243.98682	998.99457	394.10962	0.00000	0.00000	0.00000	0.00000	0.00000	0.00000	1208.87097	784.97925	418.27097	1209.50659	737.27582	416.04733	0.00000	0.00000	0.00000	1151.60693	477.79956	264.01352	1259.72937	454.51767	381.53601	1291.77686	419.89594	385.13089	1220.55603	409.73367	380.26758	0.00000	0.00000	0.00000	0.00000	0.00000	0.00000	1470.67664	217.28090	346.35724	1544.30908	217.97289	295.96930	0.00000	0.00000	0.00000	1371.02112	78.63819	316.94827	0.00000	0.00000	0.00000	1389.92114	1030.65857	170.87636	1222.41357	1012.61737	61.27423	1289.49475	745.52295	16.03466	1277.35840	702.91711	20.03018	1230.27698	757.07990	15.23958	1224.85815	712.57831	20.74067	1239.41992	486.38437	93.25763	1243.04932	485.90015	205.51979	1308.53198	391.72183	83.54945	1301.04211	346.42007	86.15913	1244.67834	390.27130	94.85993	1250.35144	350.73840	90.82001	0.00000	0.00000	0.00000	1257.27869	85.60116	233.68802	1283.82007	87.89202	149.00142	0.00000	0.00000	0.00000	1157.22424	35.29541	132.81516	1114.34314	55.33815	196.39539
1711	6.84000	1393.51746	1022.07825	253.05490	1246.79968	999.57281	393.54459	0.00000	0.00000	0.00000	1242.43933	725.71161	431.65225	1204.30249	785.79608	417.96436	1193.95691	740.40149	416.65289	0.00000	0.00000	0.00000	1143.85767	479.50391	263.96289	1251.86389	454.75571	381.34650	1285.60327	420.70050	384.29758	1211.90649	410.66644	380.27118	0.00000	0.00000	0.00000	0.00000	0.00000	0.00000	1458.90503	214.20026	346.60217	1534.19678	213.87617	296.52069	1415.07922	99.11339	370.98248	1356.07422	77.97590	317.92261	0.00000	0.00000	0.00000	1385.56775	1030.60449	171.00798	1218.73486	1012.33289	60.96236	1287.11536	745.81116	16.03697	1275.14099	703.03003	19.97586	1227.80725	756.94287	15.05230	1222.59753	712.45593	20.48888	1238.26697	486.04742	93.57178	1242.16382	485.73431	205.42290	1307.80566	391.81982	83.43854	1302.35681	348.43036	84.80064	1244.98401	391.40707	93.65725	1249.76306	350.71210	90.74145	0.00000	0.00000	0.00000	1257.20142	85.62195	233.68483	1283.75720	87.91436	149.02921	0.00000	0.00000	0.00000	1157.20386	35.29042	132.82840	1114.31201	55.23259	196.39070
